<svg width="728" height="126" viewBox="0 0 728 126" fill="none" xmlns="http://www.w3.org/2000/svg">
<path opacity="0.4" d="M65.385 6.685L64.5554 8.50484L64.5654 8.50933L65.385 6.685ZM79.695 55.015L81.3726 56.1039L81.3769 56.0973L81.3811 56.0906L79.695 55.015ZM65.385 66.895L66.1923 68.7249L66.2046 68.7193L65.385 66.895ZM24.615 70.945V68.945H22.615V70.945H24.615ZM24.615 97V99H26.615V97H24.615ZM2.745 97H0.745001V99H2.745V97ZM2.745 2.49999V0.499994H0.745001V2.49999H2.745ZM57.42 48.94L58.6843 50.4897L58.6963 50.4799L58.7083 50.4698L57.42 48.94ZM57.42 24.64L56.1317 26.1698L56.1437 26.1799L56.1557 26.1897L57.42 24.64ZM24.615 20.32V18.32H22.615V20.32H24.615ZM24.615 53.125H22.615V55.125H24.615V53.125ZM43.65 4.49999C51.8018 4.49999 58.7514 5.85886 64.5554 8.50481L66.2146 4.86518C59.7786 1.93113 52.2382 0.499994 43.65 0.499994V4.49999ZM64.5654 8.50933C70.4657 11.1602 74.92 14.8822 78.0174 19.6539L81.3726 17.4761C77.81 11.9878 72.7243 7.78979 66.2046 4.86066L64.5654 8.50933ZM78.0174 19.6539C81.1072 24.4138 82.69 30.0979 82.69 36.79H86.69C86.69 29.4421 84.9428 22.9761 81.3726 17.4761L78.0174 19.6539ZM82.69 36.79C82.69 43.3858 81.1101 49.078 78.0089 53.9394L81.3811 56.0906C84.9399 50.512 86.69 44.0542 86.69 36.79H82.69ZM78.0174 53.9261C74.92 58.6978 70.4657 62.4198 64.5654 65.0707L66.2046 68.7193C72.7243 65.7902 77.81 61.5922 81.3726 56.1039L78.0174 53.9261ZM64.5777 65.0652C58.7674 67.6285 51.8097 68.945 43.65 68.945V72.945C52.2303 72.945 59.7626 71.5615 66.1923 68.7248L64.5777 65.0652ZM43.65 68.945H24.615V72.945H43.65V68.945ZM22.615 70.945V97H26.615V70.945H22.615ZM24.615 95H2.745V99H24.615V95ZM4.745 97V2.49999H0.745001V97H4.745ZM2.745 4.49999H43.65V0.499994H2.745V4.49999ZM42.435 55.125C49.2489 55.125 54.7693 53.6835 58.6843 50.4897L56.1557 47.3903C53.2307 49.7765 48.7611 51.125 42.435 51.125V55.125ZM58.7083 50.4698C62.6572 47.1444 64.55 42.4902 64.55 36.79H60.55C60.55 41.5298 59.0228 44.9756 56.1317 47.4102L58.7083 50.4698ZM64.55 36.79C64.55 31.0141 62.6653 26.3379 58.6843 23.0903L56.1557 26.1897C59.0148 28.5221 60.55 31.9459 60.55 36.79H64.55ZM58.7083 23.1102C54.7917 19.812 49.2613 18.32 42.435 18.32V22.32C48.7487 22.32 53.2083 23.708 56.1317 26.1698L58.7083 23.1102ZM42.435 18.32H24.615V22.32H42.435V18.32ZM22.615 20.32V53.125H26.615V20.32H22.615ZM24.615 55.125H42.435V51.125H24.615V55.125ZM181.065 66.625V68.625H182.917L183.059 66.7784L181.065 66.625ZM126.12 66.625V64.625H123.632L124.167 67.0547L126.12 66.625ZM133.14 77.29L131.985 78.9228L133.14 77.29ZM156.9 79.585L157.602 81.4577L157.618 81.4519L157.633 81.4458L156.9 79.585ZM165.135 74.185L166.605 72.8291L165.219 71.3258L163.747 72.7453L165.135 74.185ZM176.34 86.335L177.846 87.6508L179.028 86.2988L177.81 84.9791L176.34 86.335ZM124.635 93.355L123.721 95.1336L123.731 95.1388L123.741 95.1439L124.635 93.355ZM110.055 79.99L108.343 81.023L110.055 79.99ZM109.92 41.515L108.201 40.4939L108.196 40.5022L109.92 41.515ZM123.825 28.15L124.773 29.911L124.783 29.9058L123.825 28.15ZM162.975 27.88L163.914 26.1138L162.975 27.88ZM176.475 41.11L174.732 42.0905L174.741 42.1068L174.751 42.1228L176.475 41.11ZM125.85 54.34L123.873 54.0359L123.519 56.34H125.85V54.34ZM161.625 54.34V56.34H163.963L163.601 54.0301L161.625 54.34ZM155.685 43.405L154.38 44.9205L154.392 44.9311L154.405 44.9414L155.685 43.405ZM179.47 60.955C179.47 60.9459 179.467 61.0431 179.449 61.3365C179.432 61.5978 179.408 61.9622 179.374 62.4325C179.307 63.372 179.206 64.7177 179.071 66.4716L183.059 66.7784C183.324 63.3425 183.47 61.3264 183.47 60.955H179.47ZM181.065 64.625H126.12V68.625H181.065V64.625ZM124.167 67.0547C125.262 72.0307 127.88 76.0191 131.985 78.9228L134.295 75.6572C131.02 73.3409 128.959 70.2193 128.074 66.1953L124.167 67.0547ZM131.985 78.9228C136.08 81.8191 141.097 83.205 146.91 83.205V79.205C141.744 79.205 137.58 77.9809 134.295 75.6572L131.985 78.9228ZM146.91 83.205C150.877 83.205 154.453 82.6387 157.602 81.4577L156.198 77.7123C153.587 78.6913 150.503 79.205 146.91 79.205V83.205ZM157.633 81.4458C160.87 80.1708 163.833 78.219 166.524 75.6247L163.747 72.7453C161.397 75.011 158.871 76.6592 156.167 77.7242L157.633 81.4458ZM163.665 75.5409L174.87 87.6909L177.81 84.9791L166.605 72.8291L163.665 75.5409ZM174.834 85.0192C168.47 92.3046 159.097 96.08 146.37 96.08V100.08C159.924 100.08 170.531 96.0254 177.846 87.6508L174.834 85.0192ZM146.37 96.08C138.44 96.08 131.51 94.5563 125.53 91.5661L123.741 95.1439C130.36 98.4537 137.92 100.08 146.37 100.08V96.08ZM125.55 91.5764C119.556 88.4938 114.983 84.2869 111.768 78.957L108.343 81.023C111.968 87.0331 117.115 91.7362 123.721 95.1336L125.55 91.5764ZM111.768 78.957C108.552 73.6258 106.925 67.5538 106.925 60.685H102.925C102.925 68.2162 104.718 75.0142 108.343 81.023L111.768 78.957ZM106.925 60.685C106.925 53.9012 108.51 47.866 111.645 42.5278L108.196 40.5022C104.671 46.504 102.925 53.2488 102.925 60.685H106.925ZM111.64 42.5361C114.876 37.0854 119.246 32.8874 124.773 29.9109L122.877 26.389C116.705 29.7126 111.804 34.4246 108.201 40.4939L111.64 42.5361ZM124.783 29.9058C130.407 26.8383 136.688 25.29 143.67 25.29V21.29C136.072 21.29 129.124 22.9817 122.868 26.3942L124.783 29.9058ZM143.67 25.29C150.483 25.29 156.591 26.7533 162.037 29.6462L163.914 26.1138C157.839 22.8867 151.077 21.29 143.67 21.29V25.29ZM162.037 29.6462C167.454 32.5242 171.677 36.6593 174.732 42.0905L178.218 40.1295C174.793 34.0407 170.016 29.3558 163.914 26.1138L162.037 29.6462ZM174.751 42.1228C177.875 47.4422 179.47 53.697 179.47 60.955H183.47C183.47 53.093 181.736 46.1178 178.2 40.0972L174.751 42.1228ZM143.805 37.22C138.632 37.22 134.156 38.6949 130.51 41.7336L133.071 44.8064C135.904 42.4451 139.438 41.22 143.805 41.22V37.22ZM130.51 41.7336C126.849 44.7845 124.658 48.9374 123.873 54.0359L127.827 54.6441C128.483 50.3826 130.252 47.1555 133.071 44.8064L130.51 41.7336ZM125.85 56.34H161.625V52.34H125.85V56.34ZM163.601 54.0301C162.814 49.0129 160.618 44.9118 156.966 41.8686L154.405 44.9414C157.233 47.2982 158.996 50.4871 159.649 54.6499L163.601 54.0301ZM156.99 41.8895C153.352 38.7565 148.915 37.22 143.805 37.22V41.22C148.055 41.22 151.538 42.4735 154.38 44.9205L156.99 41.8895ZM281.988 97H279.988V99H281.988V97ZM281.988 53.53H283.988V46.2709L280.271 52.5057L281.988 53.53ZM260.253 89.98V91.98H261.389L261.971 91.0043L260.253 89.98ZM251.343 89.98L249.613 90.9826L250.191 91.98H251.343V89.98ZM230.148 53.395L231.879 52.3924L228.148 45.953V53.395H230.148ZM230.148 97V99H232.148V97H230.148ZM211.113 97H209.113V99H211.113V97ZM211.113 24.37V22.37H209.113V24.37H211.113ZM233.118 24.37L234.868 23.4021L234.298 22.37H233.118V24.37ZM256.338 66.355L254.588 67.3229L256.284 70.3902L258.062 67.3693L256.338 66.355ZM281.043 24.37V22.37H279.9L279.32 23.3557L281.043 24.37ZM300.753 24.37L302.753 24.3626L302.746 22.37H300.753V24.37ZM301.023 97V99H303.031L303.023 96.9926L301.023 97ZM283.988 97V53.53H279.988V97H283.988ZM280.271 52.5057L258.535 88.9557L261.971 91.0043L283.706 54.5543L280.271 52.5057ZM260.253 87.98H251.343V91.98H260.253V87.98ZM253.074 88.9774L231.879 52.3924L228.418 54.3976L249.613 90.9826L253.074 88.9774ZM228.148 53.395V97H232.148V53.395H228.148ZM230.148 95H211.113V99H230.148V95ZM213.113 97V24.37H209.113V97H213.113ZM211.113 26.37H233.118V22.37H211.113V26.37ZM231.368 25.3379L254.588 67.3229L258.088 65.3871L234.868 23.4021L231.368 25.3379ZM258.062 67.3693L282.767 25.3843L279.32 23.3557L254.615 65.3407L258.062 67.3693ZM281.043 26.37H300.753V22.37H281.043V26.37ZM298.753 24.3774L299.023 97.0074L303.023 96.9926L302.753 24.3626L298.753 24.3774ZM301.023 95H281.988V99H301.023V95ZM400.306 76.75L402.155 75.986L401.644 74.75H400.306V76.75ZM356.431 76.75V74.75H355.094L354.583 75.986L356.431 76.75ZM348.061 97V99H349.399L349.91 97.764L348.061 97ZM325.651 97L323.825 96.1858L322.57 99H325.651V97ZM367.771 2.49999V0.499994H366.473L365.945 1.68578L367.771 2.49999ZM389.371 2.49999L391.197 1.68361L390.668 0.499994H389.371V2.49999ZM431.626 97V99H434.711L433.452 96.1836L431.626 97ZM408.676 97L406.828 97.764L407.339 99H408.676V97ZM393.421 60.145V62.145H396.414L395.269 59.3797L393.421 60.145ZM378.436 23.965L380.284 23.1997L378.436 18.7384L376.589 23.1997L378.436 23.965ZM363.451 60.145L361.604 59.3797L360.458 62.145H363.451V60.145ZM400.306 74.75H356.431V78.75H400.306V74.75ZM354.583 75.986L346.213 96.236L349.91 97.764L358.28 77.514L354.583 75.986ZM348.061 95H325.651V99H348.061V95ZM327.478 97.8142L369.598 3.31421L365.945 1.68578L323.825 96.1858L327.478 97.8142ZM367.771 4.49999H389.371V0.499994H367.771V4.49999ZM387.546 3.31638L429.801 97.8164L433.452 96.1836L391.197 1.68361L387.546 3.31638ZM431.626 95H408.676V99H431.626V95ZM410.525 96.236L402.155 75.986L398.458 77.514L406.828 97.764L410.525 96.236ZM395.269 59.3797L380.284 23.1997L376.589 24.7303L391.574 60.9103L395.269 59.3797ZM376.589 23.1997L361.604 59.3797L365.299 60.9103L380.284 24.7303L376.589 23.1997ZM363.451 62.145H393.421V58.145H363.451V62.145ZM517.193 28.015L516.198 29.7497L516.214 29.7593L516.231 29.7686L517.193 28.015ZM530.288 41.11L528.54 42.0813L528.546 42.0932L530.288 41.11ZM530.288 80.395L532.03 81.3782L532.036 81.3663L530.288 80.395ZM517.193 93.49L518.167 95.237L518.176 95.2317L517.193 93.49ZM476.963 89.305L478.444 87.9608L474.963 84.1259V89.305H476.963ZM476.963 123.19V125.19H478.963V123.19H476.963ZM455.903 123.19H453.903V125.19H455.903V123.19ZM455.903 24.37V22.37H453.903V24.37H455.903ZM476.018 24.37H478.018V22.37H476.018V24.37ZM476.018 32.74H474.018V38.2885L477.558 34.016L476.018 32.74ZM508.418 75.4L506.969 74.0216L506.968 74.0225L508.418 75.4ZM508.418 46.105L506.951 47.4645L506.968 47.4831L506.986 47.5012L508.418 46.105ZM481.823 46.105L480.374 44.7266L480.373 44.7275L481.823 46.105ZM481.823 75.4L480.356 76.7595L480.373 76.7781L480.391 76.7962L481.823 75.4ZM498.833 25.29C505.258 25.29 511.031 26.7851 516.198 29.7497L518.188 26.2803C512.375 22.9449 505.908 21.29 498.833 21.29V25.29ZM516.231 29.7686C521.474 32.6436 525.569 36.7343 528.54 42.0813L532.036 40.1387C528.707 34.1457 524.072 29.5064 518.155 26.2614L516.231 29.7686ZM528.546 42.0932C531.501 47.3267 533.013 53.5019 533.013 60.685H537.013C537.013 52.9281 535.375 46.0533 532.03 40.1268L528.546 42.0932ZM533.013 60.685C533.013 67.8672 531.501 74.0933 528.54 79.4237L532.036 81.3663C535.375 75.3567 537.013 68.4428 537.013 60.685H533.013ZM528.546 79.4118C525.576 84.6746 521.473 88.7774 516.21 91.7484L518.176 95.2317C524.073 91.9026 528.701 87.2754 532.03 81.3782L528.546 79.4118ZM516.219 91.743C511.049 94.6249 505.268 96.08 498.833 96.08V100.08C505.898 100.08 512.357 98.4751 518.167 95.237L516.219 91.743ZM498.833 96.08C490.02 96.08 483.308 93.32 478.444 87.9608L475.482 90.6492C481.238 96.99 489.106 100.08 498.833 100.08V96.08ZM474.963 89.305V123.19H478.963V89.305H474.963ZM476.963 121.19H455.903V125.19H476.963V121.19ZM457.903 123.19V24.37H453.903V123.19H457.903ZM455.903 26.37H476.018V22.37H455.903V26.37ZM474.018 24.37V32.74H478.018V24.37H474.018ZM477.558 34.016C482.315 28.2754 489.294 25.29 498.833 25.29V21.29C488.392 21.29 480.161 24.6046 474.478 31.464L477.558 34.016ZM495.188 82.8C501.083 82.8 506.035 80.812 509.868 76.7775L506.968 74.0225C503.961 77.188 500.093 78.8 495.188 78.8V82.8ZM509.867 76.7784C513.8 72.644 515.683 67.2082 515.683 60.685H511.683C511.683 66.4017 510.056 70.776 506.969 74.0216L509.867 76.7784ZM515.683 60.685C515.683 54.1636 513.8 48.7604 509.85 44.7088L506.986 47.5012C510.056 50.6496 511.683 54.9664 511.683 60.685H515.683ZM509.885 44.7455C506.056 40.6147 501.099 38.57 495.188 38.57V42.57C500.077 42.57 503.94 44.2153 506.951 47.4645L509.885 44.7455ZM495.188 38.57C489.277 38.57 484.286 40.6137 480.374 44.7266L483.272 47.4834C486.38 44.2163 490.299 42.57 495.188 42.57V38.57ZM480.373 44.7275C476.522 48.7812 474.693 54.1778 474.693 60.685H478.693C478.693 54.9522 480.284 50.6288 483.273 47.4825L480.373 44.7275ZM474.693 60.685C474.693 67.1942 476.523 72.6233 480.356 76.7595L483.29 74.0405C480.284 70.7967 478.693 66.4158 478.693 60.685H474.693ZM480.391 76.7962C484.307 80.8129 489.293 82.8 495.188 82.8V78.8C490.283 78.8 486.359 77.1871 483.255 74.0038L480.391 76.7962ZM595.268 69.46L596.902 68.3066L596.305 67.46H595.268V69.46ZM584.333 69.46V67.46H582.333V69.46H584.333ZM584.333 97V99H586.333V97H584.333ZM563.273 97H561.273V99H563.273V97ZM563.273 24.37V22.37H561.273V24.37H563.273ZM584.333 24.37H586.333V22.37H584.333V24.37ZM584.333 52.585H582.333V54.585H584.333V52.585ZM595.673 52.585V54.585H596.716L597.313 53.7303L595.673 52.585ZM615.383 24.37V22.37H614.341L613.744 23.2246L615.383 24.37ZM637.793 24.37L639.41 25.5478L641.725 22.37H637.793V24.37ZM612.413 59.2L610.797 58.0222L609.945 59.1912L610.789 60.3663L612.413 59.2ZM639.548 97V99H643.446L641.173 95.8337L639.548 97ZM614.708 97L613.075 98.1534L613.672 99H614.708V97ZM595.268 67.46H584.333V71.46H595.268V67.46ZM582.333 69.46V97H586.333V69.46H582.333ZM584.333 95H563.273V99H584.333V95ZM565.273 97V24.37H561.273V97H565.273ZM563.273 26.37H584.333V22.37H563.273V26.37ZM582.333 24.37V52.585H586.333V24.37H582.333ZM584.333 54.585H595.673V50.585H584.333V54.585ZM597.313 53.7303L617.023 25.5153L613.744 23.2246L594.034 51.4397L597.313 53.7303ZM615.383 26.37H637.793V22.37H615.383V26.37ZM636.177 23.1922L610.797 58.0222L614.03 60.3778L639.41 25.5478L636.177 23.1922ZM610.789 60.3663L637.924 98.1663L641.173 95.8337L614.038 58.0337L610.789 60.3663ZM639.548 95H614.708V99H639.548V95ZM616.342 95.8466L596.902 68.3066L593.635 70.6134L613.075 98.1534L616.342 95.8466ZM716.206 31.39L714.872 32.8799L714.878 32.8855L714.885 32.891L716.206 31.39ZM725.251 97V99H727.251V97H725.251ZM705.541 97H703.541V99H705.541V97ZM705.541 87.955H707.541V80.5935L703.816 86.943L705.541 87.955ZM668.821 95.245L667.976 97.0574L667.983 97.0609L667.991 97.0644L668.821 95.245ZM659.506 87.415L657.828 88.5034L659.506 87.415ZM663.826 60.145L662.622 58.5484L662.615 58.5535L662.608 58.5587L663.826 60.145ZM704.191 54.34V56.34H706.191V54.34H704.191ZM700.006 43.81L698.666 45.2942L698.679 45.3063L698.693 45.3182L700.006 43.81ZM675.976 41.92L676.581 43.8265L676.595 43.822L676.609 43.8174L675.976 41.92ZM666.526 46.78L664.747 47.694L665.861 49.8607L667.769 48.347L666.526 46.78ZM658.966 32.065L657.814 30.43L656.392 31.4318L657.187 32.979L658.966 32.065ZM673.141 25.585L672.612 23.6562L672.604 23.6584L673.141 25.585ZM698.251 81.475L699.256 83.2046L699.276 83.1926L699.296 83.1802L698.251 81.475ZM704.191 74.05L706.072 74.7293L706.191 74.4V74.05H704.191ZM704.191 66.625H706.191V64.625H704.191V66.625ZM679.891 81.61L678.659 83.185L678.696 83.2144L678.735 83.2421L679.891 81.61ZM690.286 25.29C701.236 25.29 709.33 27.9173 714.872 32.8799L717.541 29.9001C711.022 24.0627 701.836 21.29 690.286 21.29V25.29ZM714.885 32.891C720.349 37.7027 723.251 45.1216 723.251 55.555H727.251C727.251 44.3884 724.124 35.6973 717.528 29.889L714.885 32.891ZM723.251 55.555V97H727.251V55.555H723.251ZM725.251 95H705.541V99H725.251V95ZM707.541 97V87.955H703.541V97H707.541ZM703.816 86.943C700.346 92.8588 693.794 96.08 683.401 96.08V100.08C694.609 100.08 702.817 96.5512 707.266 88.967L703.816 86.943ZM683.401 96.08C678.045 96.08 673.479 95.1728 669.652 93.4256L667.991 97.0644C672.443 99.0972 677.598 100.08 683.401 100.08V96.08ZM669.667 93.4326C665.913 91.6807 663.115 89.3037 661.184 86.3266L657.828 88.5034C660.217 92.1863 663.63 95.0293 667.976 97.0574L669.667 93.4326ZM661.184 86.3266C659.248 83.3423 658.266 79.9453 658.266 76.075H654.266C654.266 80.6647 655.444 84.8277 657.828 88.5034L661.184 86.3266ZM658.266 76.075C658.266 69.9016 660.532 65.1962 665.044 61.7313L662.608 58.5587C657.041 62.8338 654.266 68.7484 654.266 76.075H658.266ZM665.031 61.7416C669.652 58.2554 677.007 56.34 687.451 56.34V52.34C676.656 52.34 668.26 54.2946 662.622 58.5484L665.031 61.7416ZM687.451 56.34H704.191V52.34H687.451V56.34ZM706.191 54.34C706.191 49.3224 704.648 45.2006 701.32 42.3018L698.693 45.3182C700.945 47.2794 702.191 50.1776 702.191 54.34H706.191ZM701.347 42.3258C698.046 39.3445 693.292 38.03 687.451 38.03V42.03C692.77 42.03 696.386 43.2355 698.666 45.2942L701.347 42.3258ZM687.451 38.03C683.36 38.03 679.322 38.6967 675.344 40.0226L676.609 43.8174C680.191 42.6233 683.803 42.03 687.451 42.03V38.03ZM675.372 40.0135C671.487 41.2453 668.112 42.9697 665.284 45.213L667.769 48.347C670.161 46.4503 673.085 44.9347 676.581 43.8265L675.372 40.0135ZM668.305 45.866L660.745 31.151L657.187 32.979L664.747 47.694L668.305 45.866ZM660.118 33.7C663.862 31.0625 668.37 28.9908 673.678 27.5116L672.604 23.6584C666.932 25.2392 661.991 27.4875 657.814 30.43L660.118 33.7ZM673.67 27.5138C679.076 26.0316 684.613 25.29 690.286 25.29V21.29C684.26 21.29 678.367 22.0784 672.612 23.6562L673.67 27.5138ZM688.666 85.905C692.577 85.905 696.126 85.0216 699.256 83.2046L697.247 79.7454C694.796 81.1684 691.955 81.905 688.666 81.905V85.905ZM699.296 83.1802C702.495 81.2199 704.757 78.372 706.072 74.7293L702.31 73.3707C701.286 76.208 699.588 78.3101 697.206 79.7698L699.296 83.1802ZM706.191 74.05V66.625H702.191V74.05H706.191ZM704.191 64.625H689.746V68.625H704.191V64.625ZM689.746 64.625C685.271 64.625 681.567 65.3476 678.929 67.0792C676.144 68.907 674.786 71.6988 674.786 75.13H678.786C678.786 72.8912 679.589 71.4305 681.124 70.4233C682.805 69.3198 685.581 68.625 689.746 68.625V64.625ZM674.786 75.13C674.786 78.4256 676.089 81.1741 678.659 83.185L681.124 80.035C679.553 78.8059 678.786 77.2344 678.786 75.13H674.786ZM678.735 83.2421C681.343 85.0891 684.721 85.905 688.666 85.905V81.905C685.232 81.905 682.76 81.1909 681.047 79.978L678.735 83.2421Z" fill="#D5A462"/>
</svg>
