<svg width="75" height="75" viewBox="0 0 75 75" fill="none" xmlns="http://www.w3.org/2000/svg">
<path d="M51.5621 23.7375L33.4122 42.225L24.1121 32.8875L19.1246 37.8751L33.7871 52.5001L57.3373 29.6626L51.5621 23.7375Z" fill="#32D87E"/>
<path d="M37.5 0C16.7894 0 0 16.7894 0 37.5C0 58.2106 16.7894 75 37.5 75C58.2106 75 75 58.2106 75 37.5C75 16.7894 58.2108 0 37.5 0ZM37.5 68.2125C20.538 68.2125 6.78745 54.462 6.78745 37.5C6.78745 20.538 20.538 6.78745 37.5 6.78745C54.4534 6.80802 68.1918 20.5464 68.2125 37.5C68.2125 54.4622 54.4622 68.2125 37.5 68.2125Z" fill="#32D87E"/>
</svg>
