<svg width="210" height="40" fill="none" xmlns="http://www.w3.org/2000/svg"><path d="M14.16.2c2.728 0 5.09.455 7.084 1.364 2.024.91 3.579 2.2 4.664 3.872 1.085 1.672 1.628 3.652 1.628 5.94 0 2.259-.543 4.239-1.628 5.94-1.085 1.672-2.64 2.963-4.664 3.872-1.995.88-4.356 1.32-7.084 1.32H7.956V31H.828V.2H14.16zm-.396 16.5c2.141 0 3.77-.455 4.884-1.364 1.115-.939 1.672-2.259 1.672-3.96 0-1.73-.557-3.05-1.672-3.96-1.115-.939-2.743-1.408-4.884-1.408H7.956V16.7h5.808zm40.915 2.552c0 .088-.044.704-.132 1.848H36.64c.323 1.467 1.085 2.625 2.288 3.476 1.203.85 2.699 1.276 4.488 1.276 1.232 0 2.318-.176 3.256-.528.968-.381 1.863-.968 2.684-1.76l3.652 3.96c-2.23 2.552-5.485 3.828-9.768 3.828-2.67 0-5.03-.513-7.084-1.54-2.053-1.056-3.637-2.508-4.752-4.356-1.114-1.848-1.672-3.945-1.672-6.292 0-2.317.543-4.4 1.628-6.248a11.552 11.552 0 014.532-4.356c1.936-1.056 4.092-1.584 6.468-1.584 2.317 0 4.415.499 6.292 1.496 1.877.997 3.344 2.435 4.4 4.312 1.085 1.848 1.628 4.004 1.628 6.468zm-12.276-7.084c-1.554 0-2.86.44-3.916 1.32-1.056.88-1.701 2.083-1.936 3.608h11.66c-.234-1.496-.88-2.684-1.936-3.564-1.056-.91-2.346-1.364-3.872-1.364zM83.041 31V16.832l-7.084 11.88h-2.904l-6.908-11.924V31H59.94V7.328h7.172l7.568 13.684 8.052-13.684h6.424L89.245 31H83.04z" fill="#fff"/><path d="M117.204 24.4h-14.3l-2.728 6.6h-7.305L106.6.2h7.04L127.412 31h-7.48l-2.728-6.6zm-2.244-5.412l-4.884-11.792-4.884 11.792h9.768zm29.956-12.012c2.2 0 4.195.513 5.984 1.54 1.819.997 3.241 2.42 4.268 4.268 1.027 1.819 1.54 3.945 1.54 6.38s-.513 4.576-1.54 6.424a11.052 11.052 0 01-4.268 4.268c-1.789.997-3.784 1.496-5.984 1.496-3.021 0-5.397-.953-7.128-2.86v11.044h-6.864V7.328h6.556v2.728c1.701-2.053 4.18-3.08 7.436-3.08zm-1.188 18.744c1.76 0 3.197-.587 4.312-1.76 1.144-1.203 1.716-2.801 1.716-4.796s-.572-3.579-1.716-4.752c-1.115-1.203-2.552-1.804-4.312-1.804-1.76 0-3.212.601-4.356 1.804-1.115 1.173-1.672 2.757-1.672 4.752 0 1.995.557 3.593 1.672 4.796 1.144 1.173 2.596 1.76 4.356 1.76zm28.219-3.696h-3.564V31h-6.864V7.328h6.864v9.196h3.696l6.424-9.196h7.304l-8.272 11.352L186.379 31h-8.096l-6.336-8.976zm26.569-15.048c3.666 0 6.482.88 8.448 2.64 1.965 1.73 2.948 4.356 2.948 7.876V31h-6.424v-2.948c-1.291 2.2-3.696 3.3-7.216 3.3-1.819 0-3.403-.308-4.752-.924-1.32-.616-2.332-1.467-3.036-2.552-.704-1.085-1.056-2.317-1.056-3.696 0-2.2.821-3.93 2.464-5.192 1.672-1.261 4.238-1.892 7.7-1.892h5.456c0-1.496-.455-2.64-1.364-3.432-.91-.821-2.274-1.232-4.092-1.232-1.262 0-2.508.205-3.74.616-1.203.381-2.23.91-3.08 1.584l-2.464-4.796c1.29-.91 2.83-1.613 4.62-2.112a21.03 21.03 0 015.588-.748zm-.528 19.756c1.173 0 2.214-.264 3.124-.792.909-.557 1.554-1.364 1.936-2.42V21.1h-4.708c-2.816 0-4.224.924-4.224 2.772 0 .88.337 1.584 1.012 2.112.704.499 1.657.748 2.86.748z" fill="#279EFF"/></svg>