<svg width="21" height="21" fill="none" xmlns="http://www.w3.org/2000/svg"><path d="M14.908 0H6.092C5.242 0 4.55.692 4.55 1.542v17.916c0 .85.692 1.542 1.542 1.542h8.816c.85 0 1.542-.692 1.542-1.542V1.542C16.45.692 15.758 0 14.908 0zM5.25 2.8h10.5v13.3H5.25V2.8zM6.092.7h8.816c.465 0 .842.378.842.842V2.1H5.25v-.558c0-.464.377-.842.842-.842zm8.816 19.6H6.092a.843.843 0 01-.842-.842V16.8h10.5v2.658a.843.843 0 01-.842.842z" fill="#D5A462"/><path d="M10.5 17.15c-.772 0-1.4.628-1.4 1.4 0 .772.628 1.4 1.4 1.4.772 0 1.4-.628 1.4-1.4 0-.772-.628-1.4-1.4-1.4zm0 2.1a.7.7 0 11.001-1.401.7.7 0 01-.001 1.401zM9.1 1.75h1.4a.35.35 0 100-.7H9.1a.35.35 0 100 .7zM11.55 1.75h.35a.35.35 0 100-.7h-.35a.35.35 0 100 .7zM19.814 1.6a.35.35 0 10-.494.494 3.358 3.358 0 010 4.743.35.35 0 10.494.495 4.058 4.058 0 000-5.733z" fill="#D5A462"/><path d="M18.34 2.396a.35.35 0 10-.494.495 2.28 2.28 0 01.671 1.623 2.28 2.28 0 01-.671 1.624.35.35 0 10.495.495 2.974 2.974 0 00.876-2.119c0-.8-.31-1.553-.876-2.118zM1.68 2.094a.35.35 0 10-.495-.495 4.058 4.058 0 000 5.733.349.349 0 00.495 0 .35.35 0 000-.495 3.357 3.357 0 010-4.743z" fill="#D5A462"/><path d="M3.154 2.3a.35.35 0 00-.495 0 2.975 2.975 0 00-.876 2.117c0 .801.311 1.554.876 2.119a.349.349 0 00.495 0 .35.35 0 000-.495 2.28 2.28 0 01-.671-1.624c0-.614.238-1.19.671-1.623a.35.35 0 000-.495z" fill="#D5A462"/></svg>