<svg width="21" height="21" fill="none" xmlns="http://www.w3.org/2000/svg"><path d="M18.42 0H2.58A2.584 2.584 0 000 2.58v15.84A2.584 2.584 0 002.58 21a.427.427 0 000-.855A1.728 1.728 0 01.856 18.42V2.581c0-.952.774-1.726 1.726-1.726h15.838c.952 0 1.726.774 1.726 1.726v15.838c0 .952-.774 1.726-1.726 1.726H7.153a.427.427 0 000 .855h11.266A2.584 2.584 0 0021 18.42V2.58A2.583 2.583 0 0018.42 0z" fill="#D5A462"/><path d="M10.5 3.703a.427.427 0 00-.427.427v6.37c0 .113.045.222.125.302l7.122 7.123a.426.426 0 00.605 0 .427.427 0 000-.605l-6.998-6.997V4.13a.427.427 0 00-.427-.427z" fill="#D5A462"/></svg>