<svg width="34" height="34" fill="none" xmlns="http://www.w3.org/2000/svg"><path d="M13.04 20.4a5.668 5.668 0 00-5.67 5.667 5.668 5.668 0 005.67 5.666 5.668 5.668 0 005.67-5.666 5.674 5.674 0 00-5.67-5.667zm0 10.2a4.534 4.534 0 110-9.067 4.534 4.534 0 014.535 4.534A4.54 4.54 0 0113.04 30.6z" fill="#fff"/><path d="M13.04 24.367c.692 0 1.134.335 1.134.566h1.133c0-.805-.713-1.457-1.7-1.643v-.623h-1.134v.623c-.987.185-1.701.837-1.701 1.643 0 .954.996 1.7 2.268 1.7.692 0 1.134.336 1.134.567 0 .231-.442.567-1.134.567-.693 0-1.134-.336-1.134-.567h-1.134c0 .805.714 1.457 1.7 1.643v.624h1.135v-.624c.987-.184 1.7-.837 1.7-1.643 0-.954-.996-1.7-2.267-1.7-.693 0-1.134-.335-1.134-.567 0-.231.441-.566 1.134-.566z" fill="#fff"/><path d="M28.914 32.867H5.102v-13.6h9.072a1.7 1.7 0 001.7-1.7V3.4h6.237v6.8h6.803v7.933h1.134V9.4l-7.135-7.132h-7.039V1.7a1.7 1.7 0 00-1.7-1.7H1.7A1.7 1.7 0 000 1.7v15.867a1.7 1.7 0 001.7 1.7H3.97V34h26.079v-7.933h-1.134v6.8zM23.244 4.2l4.868 4.866h-4.867V4.2zM1.135 17.567V1.7c0-.313.254-.567.567-.567h12.473c.313 0 .567.254.567.567v15.867a.567.567 0 01-.567.566H1.7a.567.567 0 01-.567-.566z" fill="#fff"/><path d="M18.142 14.167h1.134V15.3h-1.134v-1.133zM20.41 14.167h6.803V15.3H20.41v-1.133zM18.142 11.9h1.134v1.133h-1.134V11.9zM20.41 11.9h6.803v1.133H20.41V11.9zM18.142 16.433h1.134v1.134h-1.134v-1.134zM20.41 16.433h6.803v1.134H20.41v-1.134zM18.142 18.7h1.134v1.133h-1.134V18.7zM20.41 18.7h6.803v1.133H20.41V18.7zM14.174 1.7H1.7v3.967h12.473V1.7zM13.04 4.533H2.835v-1.7H13.04v1.7zM4.536 6.233H3.402c-.627 0-1.134.508-1.134 1.134V8.5c0 .626.507 1.133 1.134 1.133h1.134c.626 0 1.133-.507 1.133-1.133V7.367c0-.626-.507-1.134-1.133-1.134zM3.402 8.5V7.367h1.134V8.5H3.402zM8.504 6.233H7.37c-.626 0-1.134.508-1.134 1.134V8.5c0 .626.508 1.133 1.134 1.133h1.134c.626 0 1.134-.507 1.134-1.133V7.367c0-.626-.508-1.134-1.134-1.134zM7.37 8.5V7.367h1.134V8.5H7.37zM12.473 6.233h-1.134c-.626 0-1.134.508-1.134 1.134V8.5c0 .626.508 1.133 1.134 1.133h1.134c.626 0 1.134-.507 1.134-1.133V7.367c0-.626-.508-1.134-1.134-1.134zM11.339 8.5V7.367h1.134V8.5h-1.134zM4.536 10.2H3.402c-.627 0-1.134.508-1.134 1.133v1.134c0 .625.507 1.133 1.134 1.133h1.134c.626 0 1.133-.508 1.133-1.133v-1.134c0-.626-.507-1.133-1.133-1.133zm-1.134 2.267v-1.134h1.134v1.134H3.402zM8.504 10.2H7.37c-.626 0-1.134.508-1.134 1.133v1.134c0 .625.508 1.133 1.134 1.133h1.134c.626 0 1.134-.508 1.134-1.133v-1.134c0-.626-.508-1.133-1.134-1.133zM7.37 12.467v-1.134h1.134v1.134H7.37zM12.473 10.2h-1.134c-.626 0-1.134.508-1.134 1.133v1.134c0 .625.508 1.133 1.134 1.133h1.134c.626 0 1.134-.508 1.134-1.133v-1.134c0-.626-.508-1.133-1.134-1.133zm-1.134 2.267v-1.134h1.134v1.134h-1.134zM4.536 14.167H3.402c-.627 0-1.134.507-1.134 1.133v1.133c0 .626.507 1.134 1.134 1.134h1.134c.626 0 1.133-.508 1.133-1.134V15.3c0-.626-.507-1.133-1.133-1.133zm-1.134 2.266V15.3h1.134v1.133H3.402zM8.504 14.167H7.37c-.626 0-1.134.507-1.134 1.133v1.133c0 .626.508 1.134 1.134 1.134h1.134c.626 0 1.134-.508 1.134-1.134V15.3c0-.626-.508-1.133-1.134-1.133zM7.37 16.433V15.3h1.134v1.133H7.37zM12.473 14.167h-1.134c-.626 0-1.134.507-1.134 1.133v1.133c0 .626.508 1.134 1.134 1.134h1.134c.626 0 1.134-.508 1.134-1.134V15.3c0-.626-.508-1.133-1.134-1.133zm-1.134 2.266V15.3h1.134v1.133h-1.134zM33.502 18.081a1.742 1.742 0 00-2.405 0l-9.72 9.714a.573.573 0 00-.113.164l-1.368 2.97a.566.566 0 00.752.752l2.971-1.368a.567.567 0 00.164-.113l9.719-9.715a1.7 1.7 0 000-2.404zm-10.45 11.245l-1.485.684.684-1.485 7.247-7.243.802.801-7.247 7.243zm8.051-8.047l-.802-.8.397-.398.802.802-.397.396zm1.599-1.598l-.4.401-.803-.801.402-.4a.58.58 0 01.801 0 .567.567 0 010 .8z" fill="#fff"/></svg>